<?xml version="1.0" encoding="UTF-8"?>
<svg version="1.1" xmlns="http://www.w3.org/2000/svg" width="800" height="800">
<path d="M0 0 C132.66 0 265.32 0 402 0 C402 10.46323986 401.91258065 20.48579128 400.9765625 30.8359375 C400.87032562 32.0796109 400.76408875 33.3232843 400.65463257 34.60464478 C400.31818527 38.52871664 399.97206062 42.45185402 399.625 46.375 C399.2884784 50.24645733 398.95405677 54.11808946 398.62054443 57.98980713 C398.4000378 60.54830938 398.17824165 63.10670083 397.95513916 65.66497803 C397.41323905 71.93194781 396.90301579 78.19884521 396.45996094 84.47363281 C396.37515472 85.67396149 396.29034851 86.87429016 396.20297241 88.11099243 C396.0480331 90.34549045 395.89771323 92.58031655 395.75332642 94.81552124 C395.39202124 100.05405763 394.8565155 105.19145795 394.01831055 110.37646484 C392.89204431 117.35454307 392.28734833 124.33036433 391.74609375 131.375 C391.63965986 132.71536491 391.53280335 134.05569632 391.42555237 135.39599609 C391.14718378 138.88891783 390.87452409 142.3822613 390.60314941 145.87573242 C390.32818732 149.40181227 390.04760484 152.92744441 389.76757812 156.453125 C389.35574787 161.64821307 388.94646811 166.84349098 388.54077148 172.0390625 C388.44875458 173.20727539 388.35673767 174.37548828 388.26193237 175.57910156 C388.09155053 177.80432859 387.92988496 180.03024601 387.77835083 182.25683594 C387.38120034 187.95245455 386.81727418 193.5774784 386.02734375 199.23291016 C384.9814262 206.79392162 384.3161174 214.34828568 383.73849487 221.95603561 C383.55682426 224.34817242 383.36991999 226.73985575 383.18188477 229.13150024 C382.78336823 234.21231799 382.39142244 239.29363161 382 244.375 C381.54525312 250.26945649 381.08763926 256.16367405 380.62496948 262.05751419 C380.4438605 264.37939371 380.26681848 266.70155698 380.09008789 269.02377319 C379.41301069 277.76498771 378.51578024 286.45615014 377.45727539 295.15911865 C376.87669512 300.03569842 376.41455354 304.91554719 376 309.80859375 C375.91955948 310.73424133 375.83911896 311.65988892 375.75624084 312.61358643 C375.50150878 315.55466938 375.25066379 318.4960678 375 321.4375 C374.82100782 323.5121365 374.64188871 325.58676205 374.46264648 327.66137695 C373.68926789 336.65254986 372.92434239 345.6432034 372.28314209 354.64494324 C371.57496966 364.41032764 370.72720273 374.15845367 369.76953125 383.90234375 C369.65715118 385.05479584 369.54477112 386.20724792 369.4289856 387.3946228 C368.30175196 398.93130383 367.1549723 410.46606567 366 422 C365.45061768 422.14360962 364.90123535 422.28721924 364.33520508 422.43518066 C361.8273948 423.09128306 359.31994533 423.74875431 356.8125 424.40625 C355.94818359 424.6321582 355.08386719 424.85806641 354.19335938 425.09082031 C350.10751274 426.16315937 346.03399685 427.2433577 342 428.5 C336.40072686 430.23804598 330.71731812 431.66470051 325.03710938 433.11132812 C320.3646435 434.31725085 315.81028268 435.71060876 311.24389648 437.26806641 C307.47847232 438.49630508 303.6491955 439.46001064 299.8125 440.4375 C292.98525801 442.20419858 286.1955814 444.06360492 279.421875 446.02734375 C274.42511653 447.44765523 269.40145728 448.75953377 264.375 450.0703125 C262.29894253 450.64218944 260.23418055 451.26025062 258.1953125 451.953125 C253.80647589 453.39103235 249.35361292 454.503717 244.875 455.625 C243.98167969 455.85445313 243.08835938 456.08390625 242.16796875 456.3203125 C241.30558594 456.536875 240.44320312 456.7534375 239.5546875 456.9765625 C238.77593262 457.17330566 237.99717773 457.37004883 237.19482422 457.57275391 C235 458 235 458 231 458 C231 458.66 231 459.32 231 460 C209.25180984 465.99196446 193.2097325 469.08984719 171.28222656 462.63378906 C167.55656469 461.59914869 163.78346468 460.79256579 160 460 C160 459.34 160 458.68 160 458 C159.08089844 457.88785156 158.16179687 457.77570313 157.21484375 457.66015625 C151.93052544 456.90525363 146.75831147 455.64433454 141.5625 454.4375 C140.54478516 454.20353516 139.52707031 453.96957031 138.47851562 453.72851562 C135.98507393 453.15490697 133.49227078 452.57867103 131 452 C131 451.34 131 450.68 131 450 C130.06027344 449.88398438 129.12054688 449.76796875 128.15234375 449.6484375 C123.22041475 448.94157315 118.40516852 447.78145815 113.5625 446.625 C112.65951172 446.41617187 111.75652344 446.20734375 110.82617188 445.9921875 C106.79266913 445.03419409 102.88616616 444.02847028 99.02734375 442.50390625 C94.14911578 440.58204891 89.10220664 439.47721062 84 438.3125 C83.03449219 438.08755859 82.06898437 437.86261719 81.07421875 437.63085938 C78.71721092 437.08244666 76.35918809 436.53894142 74 436 C74 435.34 74 434.68 74 434 C72.8553125 433.87367188 71.710625 433.74734375 70.53125 433.6171875 C66.11143837 433.06276571 61.8297536 432.15814703 57.5 431.125 C56.79230469 430.96386719 56.08460937 430.80273438 55.35546875 430.63671875 C51.08493801 429.62959176 47.07208379 428.32348114 42.98632812 426.73144531 C39.71894261 425.52826353 36.37069496 424.67360199 33 423.8125 C31.98099609 423.54663086 31.98099609 423.54663086 30.94140625 423.27539062 C29.29525537 422.84646399 27.6477685 422.42266978 26 422 C24.70778973 409.69650863 23.58829861 397.39273593 22.69775391 385.05297852 C22.62089355 384.03260498 22.5440332 383.01223145 22.46484375 381.9609375 C22.399021 381.05134277 22.33319824 380.14174805 22.26538086 379.20458984 C22.12096655 376.96100653 22.12096655 376.96100653 21 375 C20.749181 372.77155614 20.55387842 370.53679902 20.38330078 368.30078125 C20.32945221 367.61073502 20.27560364 366.92068878 20.22012329 366.20973206 C20.10317468 364.70447717 19.98814859 363.199072 19.87479019 361.69354248 C19.6931008 359.28315841 19.50605031 356.87324297 19.31759644 354.46337891 C18.84875163 348.4546628 18.38825148 342.44531404 17.92907715 336.43585205 C17.48161067 330.58180368 17.02979827 324.72811803 16.5703125 318.875 C16.50557362 318.04970795 16.44083473 317.22441589 16.37413406 316.37411499 C15.50706084 305.40601618 14.4339398 294.49039374 13.09368896 283.56860352 C11.47691723 270.12843944 10.54232868 256.62625303 9.53448486 243.12963867 C9.10874526 237.44463814 8.6730581 231.76038725 8.23897171 226.07601929 C8.09071945 224.12541761 7.9446609 222.17464959 7.79867554 220.22387695 C7.39636283 214.89510589 6.98350615 209.56770515 6.49462891 204.24609375 C6.42321686 203.46806396 6.35180481 202.69003418 6.27822876 201.88842773 C6.08795304 199.91585139 6.08795304 199.91585139 5 198 C-5.39469936 134.21948333 0 61.92417897 0 0 Z " fill="#EC501B" transform="translate(0,0)"/>
<path d="M0 0 C132 0 264 0 400 0 C400 64.57534013 400 64.57534013 397.39382637 91.7334789 C396.9966061 95.93615474 396.62998749 100.14154889 396.25878906 104.34658813 C395.53665813 112.4779683 394.78909443 120.60679153 394.03191156 128.73497421 C393.1478267 138.23907585 392.2928542 147.74573962 391.43891167 157.25258898 C389.91570532 174.20170512 388.37031743 191.14871743 386.81030273 208.09448242 C385.30070588 224.49307061 383.80299963 240.89267931 382.32006836 257.29370117 C382.2280369 258.3115183 382.13600544 259.32933543 382.04118515 260.3779955 C381.67115896 264.4707854 381.30121114 268.56358237 380.93136779 272.65638879 C378.11006249 303.87640509 375.27795483 335.09546373 372.41155243 366.31137466 C372.11288809 369.56416586 371.81500443 372.81702697 371.51784325 376.06995583 C371.17585537 379.81287752 370.83213544 383.55563599 370.4870007 387.29826879 C370.30367096 389.29055326 370.1220282 391.28299274 369.94044787 393.27543741 C369.42209869 398.87547645 368.87908111 404.444276 368 410 C367.28530548 410.2053537 366.57061096 410.4107074 365.83425903 410.62228394 C360.89676111 412.04106839 355.95928991 413.459945 351.02204895 414.87962341 C350.30352721 415.08622998 349.58500547 415.29283655 348.84471035 415.50570393 C347.3279933 415.94182924 345.81127799 416.37796058 344.29456425 416.8140974 C339.49146097 418.19509133 334.68797325 419.57473937 329.88423824 420.95353413 C311.08006671 426.35159676 292.28643844 431.78378634 273.50885773 437.27368927 C267.34577085 439.07434196 261.18104461 440.86937607 255.0163269 442.66443634 C248.98786307 444.42060658 242.96226611 446.18622912 236.93846989 447.95833874 C233.15486702 449.06895664 229.36870013 450.17062274 225.58179283 451.26991463 C223.81697296 451.78423264 222.05323569 452.3022824 220.29068947 452.82433891 C217.86705802 453.54168635 215.43989967 454.24561418 213.01147461 454.9465332 C211.96406444 455.26179112 211.96406444 455.26179112 210.89549446 455.58341789 C203.34899741 457.72880006 196.90590496 457.30522393 189.37158203 455.20605469 C188.2877593 454.91713348 188.2877593 454.91713348 187.18204117 454.62237549 C184.78798685 453.98162592 182.39803636 453.3267556 180.0078125 452.671875 C178.2918747 452.20982685 176.5756919 451.74868779 174.85928345 451.28839111 C170.23707279 450.04600745 165.61832127 448.79122527 161.00041199 447.53295898 C156.19060269 446.22327417 151.3789263 444.92048409 146.56738281 443.6171875 C144.61022526 443.08705176 142.65307196 442.55690032 140.69592285 442.0267334 C139.7209938 441.76265182 138.74606476 441.49857025 137.74159241 441.22648621 C134.75787228 440.41765556 131.77461157 439.60714608 128.79138184 438.79650879 C116.40536903 435.4351384 103.99960939 432.16061767 91.57282639 428.95346832 C86.41348148 427.61870484 81.25831709 426.26788367 76.10330391 424.91650009 C72.03005667 423.85024214 67.95453109 422.79523512 63.87213135 421.76452637 C60.06222704 420.80244363 56.26053047 419.81300431 52.46335983 418.80187225 C51.07769738 418.43841495 49.68923376 418.08544942 48.29802322 417.74384308 C46.41003741 417.27892494 44.53220474 416.77333378 42.65527344 416.265625 C41.60450623 415.99524414 40.55373901 415.72486328 39.47113037 415.44628906 C37 414 37 414 35.89509833 410.84804988 C35.04363649 407.18759437 34.53790039 403.72537258 34.20729637 399.98491287 C34.1458956 399.31153554 34.08449484 398.63815822 34.02123344 397.94437551 C33.81792241 395.69629437 33.62435223 393.44748431 33.43075562 391.19854736 C33.28524282 389.5668727 33.13913114 387.93525136 32.99247324 386.30367923 C32.59176842 381.82623894 32.19961127 377.34808501 31.80886412 372.86976624 C31.38574224 368.03756674 30.95472295 363.2060709 30.52470398 358.3744812 C29.68368518 348.91063058 28.85002742 339.44614528 28.01891516 329.98142007 C27.05059907 318.95691762 26.07535252 307.93303159 25.09990413 296.90915832 C23.35935278 277.23551699 21.62562819 257.56127987 19.89550781 237.88671875 C18.21727482 218.80222921 16.53346233 199.71824226 14.84375 180.63476562 C13.00363995 159.85262169 11.16656391 139.07021386 9.33481276 118.28733134 C9.13937407 116.06993903 8.94393422 113.85254683 8.74849319 111.63515472 C8.65233931 110.54417981 8.55618543 109.45320489 8.45711779 108.32917012 C7.77996162 100.64818758 7.1007199 92.96739109 6.42072678 85.28665924 C5.59165246 75.92100399 4.76611836 66.55504441 3.94503091 57.18868545 C3.52616566 52.41147907 3.10578825 47.63441907 2.68122292 42.85771561 C2.29225039 38.48091049 1.90776946 34.10373434 1.52679844 29.7262257 C1.38855812 28.14669464 1.24871405 26.5673029 1.10706131 24.98807421 C0.91390893 22.83189825 0.72677325 20.67527608 0.54102135 18.51845169 C0.4357838 17.32346912 0.33054625 16.12848654 0.22211969 14.89729238 C-0.06046864 9.93902261 0 4.96631606 0 0 Z " fill="#0473B7" transform="translate(400,343)"/>
<path d="M0 0 C85.14 0 170.28 0 258 0 C258 74.91 258 149.82 258 227 C236.6156699 234.7221192 215.23004765 242.43414108 193.8125 250.0625 C174.52660869 256.9266711 174.52660869 256.9266711 155.28515625 263.9140625 C154.50036392 264.20178024 153.71557159 264.48949799 152.90699768 264.78593445 C149.40623058 266.07047166 145.907852 267.36092373 142.41333008 268.66235352 C141.23279053 269.09733154 140.05225098 269.53230957 138.8359375 269.98046875 C137.84126465 270.35067139 136.8465918 270.72087402 135.82177734 271.10229492 C128.79819331 273.3367402 124.61671466 272.62947611 117.81469727 270.25878906 C116.45430077 269.80271019 116.45430077 269.80271019 115.06642151 269.3374176 C112.06186412 268.32643672 109.06428576 267.29622298 106.06640625 266.265625 C103.9524406 265.54956077 101.83808899 264.83463506 99.72337341 264.12078857 C94.13336613 262.23008119 88.54916123 260.32275853 82.96588135 258.41229248 C78.50159476 256.88768909 74.0334588 255.37457868 69.56502724 253.86217499 C45.64076849 245.7645773 21.77713979 237.52032993 -2 229 C-2 208.54 -2 188.08 -2 167 C15.16 167 32.32 167 50 167 C50 174.92 50 182.84 50 191 C51.98 191.33 53.96 191.66 56 192 C57.70273407 192.53472392 59.39080555 193.11829033 61.0612793 193.74658203 C62.02055832 194.10430695 62.97983734 194.46203186 63.96818542 194.83059692 C64.99317642 195.21907806 66.01816742 195.6075592 67.07421875 196.0078125 C68.15266556 196.41152069 69.23111237 196.81522888 70.34223938 197.23117065 C73.79259941 198.52401203 77.24009808 199.82429388 80.6875 201.125 C82.95618809 201.97707421 85.22506658 202.82864164 87.49414062 203.6796875 C88.60508087 204.09684021 89.71602112 204.51399292 90.86062622 204.94378662 C93.08002376 205.775764 95.30029712 206.60540889 97.52145386 207.43267822 C102.5616834 209.31312506 107.58222024 211.22061931 112.56494141 213.24902344 C113.84556206 213.75718094 113.84556206 213.75718094 115.15205383 214.27560425 C116.70682268 214.89405178 118.25465596 215.53042141 119.79264832 216.18948364 C129.34069772 219.93062121 138.52130069 214.91132844 147.63671875 211.60546875 C148.83375931 211.17623611 150.03079987 210.74700348 151.26411438 210.30476379 C154.43130492 209.1680057 157.59674937 208.02663018 160.76141357 206.88287354 C163.94047637 205.73513888 167.12167572 204.59336054 170.30273438 203.45117188 C175.0072185 201.76113211 179.71059864 200.06809034 184.4128418 198.37182617 C185.48053802 197.98827972 186.54823425 197.60473328 187.64828491 197.20956421 C190.04737086 196.34378403 192.4428392 195.47043381 194.83633423 194.58950806 C196.10547525 194.12644724 197.37462978 193.66342344 198.64379883 193.20043945 C200.36062614 192.56921928 200.36062614 192.56921928 202.11213684 191.92524719 C205 191 205 191 208 191 C208 171.86 208 152.72 208 133 C138.7 133 69.4 133 -2 133 C-2 116.5 -2 100 -2 83 C67.63 83 137.26 83 209 83 C209 72.11 209 61.22 209 50 C139.37 50 69.74 50 -2 50 C-2 33.32000533 -0.90030702 16.6556798 0 0 Z " fill="#FEFEFE" transform="translate(473,422)"/>
<path d="M0 0 C85.47 0 170.94 0 259 0 C257.46948072 17.34588519 255.92297477 34.69322704 254 52 C189.32 52 124.64 52 58 52 C59.32 66.52 60.64 81.04 62 96 C62 98.97 62 101.94 62 105 C123.71 105 185.42 105 249 105 C246.70415409 137.1418427 246.70415409 137.1418427 245.6328125 148.7734375 C245.51172061 150.11079712 245.39088526 151.44818 245.27027893 152.7855835 C245.01920702 155.5650527 244.76666544 158.34438196 244.51278687 161.12359619 C244.11457129 165.48430125 243.72057382 169.84538145 243.32739258 174.20654297 C243.19380189 175.6880188 243.06021119 177.16949463 242.92662048 178.65097046 C242.86065107 179.38263805 242.79468166 180.11430565 242.72671318 180.86814499 C242.52833683 183.06711687 242.32965678 185.2660611 242.13087463 187.46499634 C241.05277584 199.39281893 239.98466912 211.32148647 238.93963623 223.2522583 C238.77478077 225.13055703 238.60900685 227.00877544 238.44219971 228.88690186 C237.43333339 240.25037445 236.60140222 251.60743417 236 263 C224.04349765 266.55220736 212.10958673 270.04197748 199.984375 272.97265625 C195.27380046 274.15029989 190.64218898 275.58026314 186 277 C178.71409536 279.22736171 171.41784435 281.20189004 164.015625 283 C159.52792998 284.10067096 155.07631213 285.32390203 150.625 286.5625 C149.48043335 286.87900513 149.48043335 286.87900513 148.31274414 287.2019043 C143.56806724 288.52555335 138.8780688 289.95699987 134.23828125 291.6171875 C127.49913187 292.76978198 119.97613728 289.84028006 113.5 288.1875 C112.42411621 287.91542725 111.34823242 287.64335449 110.23974609 287.36303711 C102.88353419 285.49660987 95.5404709 283.58802095 88.21582031 281.60107422 C83.31187441 280.27080595 78.40587299 278.94814008 73.5 277.625 C71.8291333 277.17398926 71.8291333 277.17398926 70.12451172 276.71386719 C61.79166134 274.46953042 53.44688886 272.27433924 45.08789062 270.12939453 C37.68689198 268.21807136 30.34261562 266.12278784 23 264 C22.92483154 262.99662598 22.84966309 261.99325195 22.7722168 260.95947266 C22.41338836 256.1811062 22.05096682 251.40301568 21.6875 246.625 C21.62130463 245.75341248 21.55510925 244.88182495 21.48690796 243.98382568 C20.75441107 234.36984536 19.99807409 224.75929081 19.1328125 215.15625 C19.06349014 214.38590424 18.99416779 213.61555847 18.92274475 212.8218689 C18.59356689 209.18217516 18.25800464 205.54318153 17.91479492 201.90478516 C17.79467041 200.59815918 17.6745459 199.2915332 17.55078125 197.9453125 C17.44419189 196.81625488 17.33760254 195.68719727 17.2277832 194.52392578 C16.95845577 190.35728889 17 186.17533235 17 182 C34.16 182 51.32 182 69 182 C69.99 190.229375 69.99 190.229375 71 198.625 C71.31324219 201.20562256 71.31324219 201.20562256 71.6328125 203.83837891 C71.79715387 205.21774024 71.96123362 206.59713278 72.125 207.9765625 C72.21136719 208.67998779 72.29773438 209.38341309 72.38671875 210.1081543 C72.85637232 214.09601632 73.08787391 217.98526061 73 222 C73.79019531 222.14695312 74.58039063 222.29390625 75.39453125 222.4453125 C82.44765079 223.8478757 89.22595975 225.60218465 96.0625 227.8125 C103.08921214 230.0721631 110.11657446 232.31928497 117.1875 234.4375 C118.04802979 234.70860596 118.90855957 234.97971191 119.79516602 235.2590332 C129.0985845 238.00431914 136.65545425 235.73691867 145.75 233.1875 C146.72646484 232.91760254 147.70292969 232.64770508 148.70898438 232.36962891 C154.59519127 230.72553014 160.4079258 228.94619892 166.18359375 226.9453125 C180.91735537 222 180.91735537 222 186 222 C186.33 215.07 186.66 208.14 187 201 C188.32 186.48 189.64 171.96 191 157 C132.59 157 74.18 157 14 157 C11.77264913 132.49914044 9.54574684 107.9987925 7.3616333 83.49414062 C5.33047147 60.70674399 3.27883801 37.92171854 1.1171875 15.14624023 C1.0400351 14.32836533 0.96288269 13.51049042 0.88339233 12.66783142 C0.74238014 11.17362602 0.60024134 9.67952627 0.45669556 8.18556213 C0.19820357 5.44150289 0 2.75844934 0 0 Z " fill="#FEFEFE" transform="translate(66,86)"/>
<path d="M0 0 C55.77 0 111.54 0 169 0 C163.24764062 66.72736886 163.24764062 66.72736886 160.96972656 91.66113281 C160.70433918 94.5761477 160.43936739 97.49120034 160.17436218 100.40625 C159.54691663 107.30530111 158.91801016 114.20421815 158.28843459 121.10307518 C157.77704417 126.7070494 157.26617608 132.31107103 156.75563812 137.91512299 C156.68166954 138.72703916 156.60770096 139.53895534 156.53149091 140.37547503 C156.38106514 142.02662365 156.23063954 143.67777228 156.08021411 145.32892093 C154.69048914 160.58243487 153.29893043 175.83578107 151.90676627 191.08907256 C150.63508372 205.02298073 149.36586522 218.95711215 148.09772924 232.8913435 C146.7850658 247.3145825 145.47074385 261.73766949 144.15462661 276.16059375 C143.41979006 284.21377338 142.68560847 292.2670114 141.95319366 300.32041168 C141.33362854 307.13277012 140.71250697 313.94498443 140.08935103 320.75701538 C139.77211866 324.22531635 139.45560808 327.69367916 139.14105034 331.16222382 C138.79998257 334.91882771 138.45616286 338.67516978 138.1116333 342.43145752 C138.01290114 343.52613822 137.91416897 344.62081892 137.81244493 345.74867177 C137.37048066 350.53759007 136.89449368 355.26916757 136 360 C122.92270966 363.94053891 109.79815708 367.62962474 96.5625 371 C86.22067216 373.63509906 75.91725548 376.37160019 65.6484375 379.28076172 C56.80161137 381.78556893 47.935003 384.21312399 39.0625 386.625 C24.59712164 390.55674122 24.59712164 390.55674122 10.16040039 394.59228516 C6.77606895 395.54378769 3.45719958 396.30856008 0 397 C0 379.18 0 361.36 0 343 C7.6089387 340.4636871 15.00673784 338.12055403 22.75 336.1875 C30.88347634 334.11405137 38.95316835 331.88731212 47 329.5 C55.98759277 326.83532576 65.01358826 324.39539471 74.09375 322.06738281 C81.13738753 320.2522916 88.07244983 318.2202318 95 316 C98.81820101 314.80213302 101.93355631 314 106 314 C105.9695459 313.12375977 105.9390918 312.24751953 105.90771484 311.34472656 C105.64940195 297.11467356 107.08337952 283.04544012 108.42294693 268.89502716 C108.76579927 265.25525284 109.09999977 261.6146869 109.43432617 257.97412109 C109.53644551 256.86239816 109.53644551 256.86239816 109.64062786 255.72821617 C109.77984283 254.21252206 109.91902788 252.69682519 110.05818367 251.18112564 C110.27083479 248.86863711 110.4845061 246.55624457 110.698349 244.24386597 C111.73853075 232.97582928 112.73091822 221.70411428 113.69921875 210.4296875 C113.80179741 209.23715111 113.80179741 209.23715111 113.90644836 208.02052307 C114.50782924 201.02852815 115.10770037 194.03640609 115.70220947 187.04382324 C116.00858897 183.4408804 116.31755105 179.83816755 116.62830544 176.23559952 C116.79598804 174.28239484 116.96062286 172.32892927 117.12516785 170.37545776 C117.22606216 169.20822174 117.32695648 168.04098572 117.4309082 166.83837891 C117.51717972 165.8257901 117.60345123 164.81320129 117.69233704 163.76992798 C117.9822749 161.15958131 118.4849207 158.57539648 119 156 C57.29 156 -4.42 156 -68 156 C-69.65370891 138.36043833 -71.15729254 120.69685659 -72 103 C-7.32 103 57.36 103 124 103 C124 99.37 124 95.74 124 92 C124.23301602 88.8896653 124.49837247 85.81545204 124.83984375 82.71875 C124.92625626 81.89797974 125.01266876 81.07720947 125.10169983 80.23156738 C125.28307322 78.52062158 125.46720568 76.80996607 125.65405273 75.09960938 C125.93983679 72.47856837 126.215661 69.85661179 126.49023438 67.234375 C126.66869202 65.56243812 126.84770796 63.89056071 127.02734375 62.21875 C127.1508445 61.04693176 127.1508445 61.04693176 127.27684021 59.85144043 C127.61888282 56.75172366 128.01051106 53.96846683 129 51 C86.43 51 43.86 51 0 51 C0 34.17 0 17.34 0 0 Z " fill="#F9661F" transform="translate(196,35)"/>
<path d="M0 0 C54.45 0 108.9 0 165 0 C163.85114046 19.53061224 163.85114046 19.53061224 162.98779297 29.09082031 C162.84328941 30.72557753 162.84328941 30.72557753 162.69586658 32.39336014 C162.38039678 35.95516842 162.06134384 39.51664532 161.7421875 43.078125 C161.51589625 45.6236393 161.28981164 48.16917197 161.06391907 50.71472168 C160.52369682 56.79557489 159.98109486 62.87621155 159.43734187 68.95674992 C158.99754156 73.87588747 158.55908975 78.79514372 158.12149048 83.71447754 C158.02789361 84.76663684 158.02789361 84.76663684 157.93240589 85.84005189 C157.869952 86.54212573 157.8074981 87.24419957 157.74315166 87.96754837 C155.49490124 113.24096342 153.23836737 138.51362793 150.92578125 163.78125 C150.84990658 164.61031986 150.77403191 165.43938972 150.695858 166.29358292 C150.12421996 172.53757656 149.55178233 178.78149695 148.9786377 185.02535248 C146.68971749 209.96588366 144.55973364 234.91717896 142.50415039 259.87796021 C140.80671716 280.48822493 139.05155789 301.09154553 137.1875 321.6875 C137.08217957 322.86101013 136.97685913 324.03452026 136.86834717 325.24359131 C136.57547956 328.49992421 136.27876057 331.75587878 135.98046875 335.01171875 C135.89533524 335.96009109 135.81020172 336.90846344 135.7224884 337.88557434 C135.34222265 341.98074947 134.93882999 345.98607076 134 350 C131.36116694 350.71045506 128.72233312 351.4209073 126.08349609 352.13134766 C123.72964244 352.76509027 121.3758018 353.39888119 119.02197266 354.03271484 C113.40556309 355.54502499 107.78906705 357.05700485 102.171875 358.56640625 C88.3464092 362.28266317 74.52598043 366.01753274 60.70684814 369.75726318 C58.60009068 370.32732791 56.49328076 370.89719882 54.38641357 371.46685791 C51.37202655 372.28198167 48.35782246 373.09777635 45.34375 373.9140625 C43.88347885 374.30949753 43.88347885 374.30949753 42.39370728 374.71292114 C37.95491654 375.91738956 33.51875196 377.12976114 29.08984375 378.37011719 C28.31596313 378.58679047 27.54208252 378.80346375 26.74475098 379.02670288 C25.3657996 379.41402677 23.987366 379.80320482 22.60974121 380.19522095 C15.11059318 382.30454843 7.56972191 384.10756952 0 386 C0 363.23 0 340.46 0 317 C19.06042263 310.01117837 38.12568885 303.05850274 57.25 296.25 C60.88271696 294.95551897 64.51532625 293.66073616 68.1479187 292.36590576 C70.57390482 291.50119583 72.99994998 290.63665154 75.42605591 289.77227783 C83.24895636 286.98420905 91.06727232 284.18362781 98.8828125 281.375 C101.79514441 280.32970097 104.70755704 279.2846272 107.61999512 278.23962402 C109.44729084 277.58324198 111.27419983 276.92578226 113.10070801 276.26721191 C115.59479176 275.36805676 118.09019609 274.47266664 120.5859375 273.578125 C121.68169601 273.18125488 121.68169601 273.18125488 122.79959106 272.77636719 C127.77225451 271 127.77225451 271 130 271 C130 196.09 130 121.18 130 44 C87.1 44 44.2 44 0 44 C0 29.48 0 14.96 0 0 Z " fill="#00A9DC" transform="translate(601,378)"/>
<path d="M0 0 C26.4 0 52.8 0 80 0 C80 19.14 80 38.28 80 58 C74.204375 60.02125 68.40875 62.0425 62.4375 64.125 C45.90097987 69.90070907 29.40153556 75.77403403 12.92944336 81.73095703 C12.13283295 82.01843811 11.33622253 82.30591919 10.51547241 82.60211182 C9.02238997 83.1410293 7.52978976 83.68128528 6.03775024 84.2230835 C1.11237832 86 1.11237832 86 0 86 C0 57.62 0 29.24 0 0 Z " fill="#00AADD" transform="translate(601,555)"/>
<path d="M0 0 C20.13 0 40.26 0 61 0 C61 12.375 61 12.375 60.54101562 17.20581055 C60.44091187 18.28610031 60.34080811 19.36639008 60.2376709 20.47941589 C60.07361755 22.16603081 60.07361755 22.16603081 59.90625 23.88671875 C59.79526978 25.06974075 59.68428955 26.25276276 59.56994629 27.47163391 C59.21808116 31.21072652 58.85916006 34.94910179 58.5 38.6875 C58.25864592 41.238888 58.01775597 43.79031995 57.77734375 46.34179688 C57.19025961 52.56171601 56.59739748 58.7810634 56 65 C54.07924923 65.6458604 52.15801292 66.29027695 50.23657227 66.93408203 C48.63181786 67.472603 48.63181786 67.472603 46.99464417 68.02200317 C43.66991001 69.10780144 40.33007067 70.02584643 36.9375 70.875 C30.16178106 72.63166787 23.51524012 74.68713676 16.87280273 76.89404297 C11.21507047 78.7375121 5.93546084 79.81290783 0 81 C0 54.27 0 27.54 0 0 Z " fill="#F9661F" transform="translate(196,243)"/>
<path d="M0 0 C23.76 0 47.52 0 72 0 C72 17.49 72 34.98 72 53 C49.56 53 27.12 53 4 53 C2.34629109 35.36043833 0.84270746 17.69685659 0 0 Z " fill="#EC4F1A" transform="translate(124,138)"/>
<path d="M0 0 C26.73 0 53.46 0 81 0 C81 10.89 81 21.78 81 33 C11.37 33 -58.26 33 -130 33 C-130 32.67 -130 32.34 -130 32 C-87.1 32 -44.2 32 0 32 C0 21.44 0 10.88 0 0 Z " fill="#06AADC" transform="translate(601,472)"/>
<path d="M0 0 C2.24757804 3.67356243 2.65032092 7.49238962 3.125 11.6875 C3.20991699 12.39777344 3.29483398 13.10804688 3.38232422 13.83984375 C3.95852328 18.92245275 4.18276971 23.88244803 4 29 C3.34 29.33 2.68 29.66 2 30 C-0.17833805 20.22493683 -0.1832107 9.97480459 0 0 Z " fill="#F39478" transform="translate(10,236)"/>
<path d="M0 0 C0.66 0 1.32 0 2 0 C3.59412284 3.18824568 3.10174735 6.62896662 3.0625 10.125 C3.05798828 10.87910156 3.05347656 11.63320312 3.04882812 12.41015625 C3.03703499 14.27347127 3.01909942 16.13674555 3 18 C0.76681005 13.53362009 -0.11664144 10.96429512 -0.0625 5.875 C-0.05347656 4.77929688 -0.04445313 3.68359375 -0.03515625 2.5546875 C-0.02355469 1.71164063 -0.01195312 0.86859375 0 0 Z " fill="#F39377" transform="translate(5,186)"/>
<path d="M0 0 C0.66 0 1.32 0 2 0 C3.59412284 3.18824568 3.10174735 6.62896662 3.0625 10.125 C3.05798828 10.87910156 3.05347656 11.63320313 3.04882812 12.41015625 C3.03703499 14.27347127 3.01909942 16.13674555 3 18 C2.34 18 1.68 18 1 18 C0.67 12.06 0.34 6.12 0 0 Z " fill="#F5A38B" transform="translate(12,267)"/>
<path d="M0 0 C0.85271484 0.19916016 0.85271484 0.19916016 1.72265625 0.40234375 C6.47151097 1.4884758 11.16780324 2.38312382 16 3 C16 3.99 16 4.98 16 6 C12.37 5.34 8.74 4.68 5 4 C5 3.34 5 2.68 5 2 C3.35 1.67 1.7 1.34 0 1 C0 0.67 0 0.34 0 0 Z " fill="#F4957A" transform="translate(126,448)"/>
<path d="M0 0 C1.43793392 0.31049726 2.8753318 0.6234776 4.3125 0.9375 C5.11300781 1.11152344 5.91351563 1.28554688 6.73828125 1.46484375 C9 2 9 2 12 3 C12 3.66 12 4.32 12 5 C8.37 4.34 4.74 3.68 1 3 C0.67 2.01 0.34 1.02 0 0 Z " fill="#F4987E" transform="translate(159,457)"/>
<path d="M0 0 C2.97 0.33 5.94 0.66 9 1 C9 1.99 9 2.98 9 4 C2.25 2.25 2.25 2.25 0 0 Z " fill="#F39175" transform="translate(100,441)"/>
<path d="M0 0 C7.625 0.875 7.625 0.875 11 2 C11 2.66 11 3.32 11 4 C9.53984709 3.71758359 8.08190207 3.42373386 6.625 3.125 C5.81289063 2.96257812 5.00078125 2.80015625 4.1640625 2.6328125 C2 2 2 2 0 0 Z " fill="#F4977D" transform="translate(45,426)"/>
<path d="M0 0 C0 0.66 0 1.32 0 2 C-2.97 2.66 -5.94 3.32 -9 4 C-9 3.34 -9 2.68 -9 2 C-3.375 0 -3.375 0 0 0 Z " fill="#F49980" transform="translate(229,458)"/>
</svg>
